<svg width="101" height="90" viewBox="0 0 101 90" fill="none" xmlns="http://www.w3.org/2000/svg">
<path d="M40.6759 46H37.9828C36.622 46.0006 35.2906 45.6033 34.1526 44.8572C33.0145 44.111 32.1195 43.0483 31.5775 41.8001C31.0355 40.5518 30.8702 39.1723 31.102 37.8313C31.3338 36.4904 31.9525 35.2464 32.8821 34.2525L34.9885 31.9929C36.0055 30.903 36.5596 29.4608 36.5339 27.9704C36.5083 26.48 35.9049 25.0577 34.851 24.0035L32.7817 21.9341C32.541 21.6849 32.4078 21.3511 32.4108 21.0046C32.4138 20.6582 32.5528 20.3267 32.7978 20.0817C33.0428 19.8367 33.3742 19.6978 33.7207 19.6948C34.0672 19.6917 34.401 19.8249 34.6502 20.0656L36.7169 22.135C38.255 23.6736 39.1355 25.7493 39.173 27.9246C39.2105 30.0998 38.4019 32.2046 36.9178 33.7953L34.8114 36.0549C34.2353 36.6732 33.8522 37.4461 33.709 38.279C33.5658 39.1118 33.6686 39.9683 34.005 40.7435C34.3414 41.5187 34.8967 42.1789 35.6028 42.6432C36.3089 43.1074 37.1351 43.3555 37.9802 43.3571H39.3095C39.3043 42.818 39.3069 42.1414 39.3307 41.3697C39.3994 39.3611 39.6214 36.6575 40.2557 33.9327C40.89 31.2238 41.9524 28.388 43.7707 26.205C45.3908 24.2599 47.5923 22.8618 50.4888 22.5367V14.7773C50.4916 13.2455 51.1016 11.7772 52.185 10.6943C53.2684 9.61136 54.7369 9.0021 56.2688 9C57.6113 9 58.7002 10.0915 58.7002 11.4367V12.7132H61.8108C63.5551 12.7132 65.1699 13.6144 66.0896 15.0971L67.2393 16.9524C69.2505 20.2004 67.0595 24.3629 63.341 24.6299V41.893C63.341 44.1606 61.5043 46 59.2367 46H57.7752V41.893C57.7755 40.988 57.5976 40.0918 57.2515 39.2555C56.9054 38.4193 56.3979 37.6594 55.7581 37.0194C55.1183 36.3793 54.3586 35.8716 53.5225 35.5251C52.6864 35.1787 51.7903 35.0004 50.8853 35.0004H48.5648C48.2144 35.0004 47.8783 35.1396 47.6304 35.3875C47.3826 35.6353 47.2434 35.9714 47.2434 36.3219C47.2434 36.6723 47.3826 37.0084 47.6304 37.2562C47.8783 37.5041 48.2144 37.6433 48.5648 37.6433H50.8853C53.2295 37.6433 55.1323 39.5461 55.1323 41.893V46H40.6759Z" fill="black"/>
<path d="M2.24 80.24C2.02667 73.3067 1.92 68.08 1.92 64.56C1.92 61.04 2.14667 57.28 2.6 53.28L10.12 53.88C11.0533 57.24 12.04 61.9467 13.08 68C14.5733 63.12 15.8933 57.84 17.04 52.16L24.6 52.84C24.8133 61.08 24.92 67.1067 24.92 70.92C24.92 74.7067 24.8 78.08 24.56 81.04L19.08 80.52C19.4267 77.16 19.72 70.04 19.96 59.16L19.64 59.12C19.3733 60.16 18.9467 61.9467 18.36 64.48C17.1333 69.7333 15.9467 74.2133 14.8 77.92L11.16 77.6C10.52 75.04 9.77333 71.7333 8.92 67.68C8.09333 63.6 7.45333 60.6 7 58.68L6.68 58.64C6.92 67.5467 7.2 74.9067 7.52 80.72L2.24 80.24ZM41.1356 61.24L41.0556 67.56C41.0556 73.5067 41.1623 77.88 41.3756 80.68L37.4156 80.28C37.3356 79.16 37.1623 78.0267 36.8956 76.88C35.429 79.04 33.949 80.12 32.4556 80.12C30.989 80.12 29.8156 79.6133 28.9356 78.6C28.0556 77.5867 27.6156 76.1867 27.6156 74.4C27.6156 70.9333 27.869 66.8 28.3756 62L33.0156 62.44C32.5356 67 32.2956 70.7867 32.2956 73.8C32.2956 75.16 32.7223 75.84 33.5756 75.84C33.9756 75.84 34.4556 75.2933 35.0156 74.2C35.6023 73.1067 36.069 71.7867 36.4156 70.24C36.389 69.6533 36.3756 68.96 36.3756 68.16C36.3756 67.36 36.4156 64.92 36.4956 60.84L41.1356 61.24ZM50.1725 77.12C51.1858 77.12 52.2658 76.1467 53.4125 74.2L56.4525 76C55.9458 76.88 55.4525 77.6267 54.9725 78.24C54.5192 78.8533 53.8258 79.44 52.8925 80C51.9592 80.56 50.9192 80.84 49.7725 80.84C48.0925 80.84 46.6792 80.1333 45.5325 78.72C44.3858 77.28 43.8125 75.3467 43.8125 72.92C43.8125 70.1467 44.3058 67.56 45.2925 65.16C45.8258 63.9067 46.5858 62.8933 47.5725 62.12C48.5858 61.32 49.6125 60.92 50.6525 60.92C51.7192 60.92 52.5725 61.0933 53.2125 61.44C53.8525 61.76 54.3592 62.1333 54.7325 62.56C55.1325 62.96 55.4792 63.56 55.7725 64.36C56.0658 65.16 56.2658 65.8133 56.3725 66.32C56.5058 66.8267 56.6125 67.56 56.6925 68.52C56.7992 69.8 56.8525 70.96 56.8525 72C54.7192 72.5867 51.9592 73.12 48.5725 73.6C48.6525 74.6667 48.8392 75.52 49.1325 76.16C49.4258 76.8 49.7725 77.12 50.1725 77.12ZM51.0525 64.84C50.4658 64.84 49.9325 65.4267 49.4525 66.6C48.9992 67.7733 48.7325 69.1333 48.6525 70.68C50.0658 70.3867 51.2925 70.1067 52.3325 69.84C52.3325 66.5067 51.9058 64.84 51.0525 64.84ZM59.7 61.56C61.8333 61.1333 63.7933 60.92 65.58 60.92C67.3933 60.92 68.8333 60.96 69.9 61.04L70.54 64.72C68.1933 68 65.8733 71.7067 63.58 75.84H65.5C67.2333 75.84 68.94 75.9333 70.62 76.12L70.1 79.8C68.4467 79.64 66.9533 79.56 65.62 79.56C64.2867 79.56 62.4067 79.76 59.98 80.16L59.26 76.04C62.2733 70.4667 64.5 66.7067 65.94 64.76C63.6467 64.9467 61.82 65.2 60.46 65.52L59.7 61.56ZM73.45 61.56C75.5833 61.1333 77.5433 60.92 79.33 60.92C81.1433 60.92 82.5833 60.96 83.65 61.04L84.29 64.72C81.9433 68 79.6233 71.7067 77.33 75.84H79.25C80.9833 75.84 82.69 75.9333 84.37 76.12L83.85 79.8C82.1967 79.64 80.7033 79.56 79.37 79.56C78.0367 79.56 76.1567 79.76 73.73 80.16L73.01 76.04C76.0233 70.4667 78.25 66.7067 79.69 64.76C77.3967 64.9467 75.57 65.2 74.21 65.52L73.45 61.56ZM86.84 68.2C87.24 66.12 88 64.36 89.12 62.92C90.24 61.4533 91.7067 60.72 93.52 60.72C95.3333 60.72 96.6667 61.48 97.52 63C98.4 64.4933 98.84 66.6267 98.84 69.4C98.84 72.1733 98.68 76 98.36 80.88L95 80.6L94.68 79.32C93.4267 80.04 92.1467 80.4 90.84 80.4C89.5333 80.4 88.4533 79.9733 87.6 79.12C86.7467 78.24 86.32 76.9867 86.32 75.36C86.32 73.7333 87.12 72.3333 88.72 71.16C90.3467 69.9867 92.2133 69.3733 94.32 69.32V68.24C94.32 66.1333 93.8133 65.08 92.8 65.08C92.2933 65.08 91.8267 65.44 91.4 66.16C91 66.8533 90.7067 67.6533 90.52 68.56L86.84 68.2ZM90.4 75.6C90.4 76.4533 90.9067 76.88 91.92 76.88C92.6133 76.88 93.3467 76.72 94.12 76.4L94.2 73.04C92.9467 73.1467 92 73.4667 91.36 74C90.72 74.5067 90.4 75.04 90.4 75.6Z" fill="black"/>
</svg>
